<?xml version="1.0" encoding="UTF-8" standalone="no"?>
<!DOCTYPE svg PUBLIC "-//W3C//DTD SVG 1.1//EN"
 "http://www.w3.org/Graphics/SVG/1.1/DTD/svg11.dtd">
<!-- Generated by graphviz version 2.38.0 (20140413.2041)
 -->
<!-- Title: G Pages: 1 -->
<svg width="1823pt" height="584pt"
 viewBox="0.00 0.00 1822.98 583.74" xmlns="http://www.w3.org/2000/svg" xmlns:xlink="http://www.w3.org/1999/xlink">
<g id="graph0" class="graph" transform="scale(1 1) rotate(0) translate(4 579.74)">
<title>G</title>
<polygon fill="white" stroke="none" points="-4,4 -4,-579.74 1818.98,-579.74 1818.98,4 -4,4"/>
<!-- Marketing\ncommunication -->
<g id="node1" class="node"><title>Marketing\ncommunication</title>
<ellipse fill="MediumAquamarine" stroke="MediumAquamarine" cx="228.714" cy="-476.87" rx="72.25" ry="26.7407"/>
<text text-anchor="middle" x="228.714" y="-480.67" font-family="Times,serif" font-size="14.00">Marketing</text>
<text text-anchor="middle" x="228.714" y="-465.67" font-family="Times,serif" font-size="14.00">communication</text>
</g>
<!-- Social Media\nCampaings -->
<g id="node11" class="node"><title>Social Media\nCampaings</title>
<ellipse fill="none" stroke="black" cx="418.772" cy="-475.87" rx="62.8651" ry="26.7407"/>
<text text-anchor="middle" x="418.772" y="-479.67" font-family="Times,serif" font-size="14.00">Social Media</text>
<text text-anchor="middle" x="418.772" y="-464.67" font-family="Times,serif" font-size="14.00">Campaings</text>
</g>
<!-- Marketing\ncommunication&#45;&gt;Social Media\nCampaings -->
<g id="edge2" class="edge"><title>Marketing\ncommunication&#45;&gt;Social Media\nCampaings</title>
<path fill="none" stroke="black" d="M301.079,-476.491C315.544,-476.414 330.77,-476.333 345.273,-476.256"/>
<polygon fill="black" stroke="black" points="345.704,-479.753 355.685,-476.2 345.667,-472.754 345.704,-479.753"/>
</g>
<!-- Study fairs\nand ehibitions -->
<g id="node2" class="node"><title>Study fairs\nand ehibitions</title>
<ellipse fill="MediumAquamarine" stroke="MediumAquamarine" cx="228.714" cy="-404.87" rx="65.5227" ry="26.7407"/>
<text text-anchor="middle" x="228.714" y="-408.67" font-family="Times,serif" font-size="14.00">Study fairs</text>
<text text-anchor="middle" x="228.714" y="-393.67" font-family="Times,serif" font-size="14.00">and ehibitions</text>
</g>
<!-- Communication\nwith prospective\nstudents -->
<g id="node15" class="node"><title>Communication\nwith prospective\nstudents</title>
<ellipse fill="none" stroke="black" cx="575.365" cy="-411.87" rx="75.8212" ry="37.4533"/>
<text text-anchor="middle" x="575.365" y="-423.17" font-family="Times,serif" font-size="14.00">Communication</text>
<text text-anchor="middle" x="575.365" y="-408.17" font-family="Times,serif" font-size="14.00">with prospective</text>
<text text-anchor="middle" x="575.365" y="-393.17" font-family="Times,serif" font-size="14.00">students</text>
</g>
<!-- Study fairs\nand ehibitions&#45;&gt;Communication\nwith prospective\nstudents -->
<g id="edge7" class="edge"><title>Study fairs\nand ehibitions&#45;&gt;Communication\nwith prospective\nstudents</title>
<path fill="none" stroke="black" d="M294.54,-406.187C349.655,-407.306 429.196,-408.922 489.398,-410.144"/>
<polygon fill="black" stroke="black" points="489.575,-413.649 499.644,-410.352 489.717,-406.65 489.575,-413.649"/>
</g>
<!-- Int. Degree\nStudents -->
<g id="node3" class="node"><title>Int. Degree\nStudents</title>
<ellipse fill="MediumAquamarine" stroke="MediumAquamarine" cx="228.714" cy="-332.87" rx="55.3091" ry="26.7407"/>
<text text-anchor="middle" x="228.714" y="-336.67" font-family="Times,serif" font-size="14.00">Int. Degree</text>
<text text-anchor="middle" x="228.714" y="-321.67" font-family="Times,serif" font-size="14.00">Students</text>
</g>
<!-- Admissions -->
<g id="node16" class="node"><title>Admissions</title>
<ellipse fill="none" stroke="black" cx="418.772" cy="-351.87" rx="52.7911" ry="18"/>
<text text-anchor="middle" x="418.772" y="-348.17" font-family="Times,serif" font-size="14.00">Admissions</text>
</g>
<!-- Int. Degree\nStudents&#45;&gt;Admissions -->
<g id="edge9" class="edge"><title>Int. Degree\nStudents&#45;&gt;Admissions</title>
<path fill="none" stroke="black" d="M282.85,-338.239C306.229,-340.601 333.797,-343.386 357.9,-345.821"/>
<polygon fill="black" stroke="black" points="357.694,-349.318 367.996,-346.841 358.398,-342.353 357.694,-349.318"/>
</g>
<!-- Transition to\nfaculty -->
<g id="node4" class="node"><title>Transition to\nfaculty</title>
<ellipse fill="MediumAquamarine" stroke="MediumAquamarine" cx="228.714" cy="-548.87" rx="60.623" ry="26.7407"/>
<text text-anchor="middle" x="228.714" y="-552.67" font-family="Times,serif" font-size="14.00">Transition to</text>
<text text-anchor="middle" x="228.714" y="-537.67" font-family="Times,serif" font-size="14.00">faculty</text>
</g>
<!-- Faculty advisor\norienting\ncandidate -->
<g id="node21" class="node"><title>Faculty advisor\norienting\ncandidate</title>
<ellipse fill="none" stroke="black" cx="901.43" cy="-529.87" rx="71.3357" ry="37.4533"/>
<text text-anchor="middle" x="901.43" y="-541.17" font-family="Times,serif" font-size="14.00">Faculty advisor</text>
<text text-anchor="middle" x="901.43" y="-526.17" font-family="Times,serif" font-size="14.00">orienting</text>
<text text-anchor="middle" x="901.43" y="-511.17" font-family="Times,serif" font-size="14.00">candidate</text>
</g>
<!-- Transition to\nfaculty&#45;&gt;Faculty advisor\norienting\ncandidate -->
<g id="edge15" class="edge"><title>Transition to\nfaculty&#45;&gt;Faculty advisor\norienting\ncandidate</title>
<path fill="none" stroke="black" d="M289.531,-547.176C410.24,-543.756 683.063,-536.028 819.525,-532.162"/>
<polygon fill="black" stroke="black" points="820.01,-535.65 829.907,-531.868 819.812,-528.652 820.01,-535.65"/>
</g>
<!-- Visa -->
<g id="node5" class="node"><title>Visa</title>
<ellipse fill="MediumAquamarine" stroke="MediumAquamarine" cx="228.714" cy="-215.87" rx="27" ry="18"/>
<text text-anchor="middle" x="228.714" y="-212.17" font-family="Times,serif" font-size="14.00">Visa</text>
</g>
<!-- Study\nAdvisor -->
<g id="node29" class="node"><title>Study\nAdvisor</title>
<ellipse fill="LightBlue" stroke="LightBlue" cx="1062.27" cy="-179.87" rx="42.3529" ry="26.7407"/>
<text text-anchor="middle" x="1062.27" y="-183.67" font-family="Times,serif" font-size="14.00">Study</text>
<text text-anchor="middle" x="1062.27" y="-168.67" font-family="Times,serif" font-size="14.00">Advisor</text>
</g>
<!-- Visa&#45;&gt;Study\nAdvisor -->
<g id="edge28" class="edge"><title>Visa&#45;&gt;Study\nAdvisor</title>
<path fill="none" stroke="blue" stroke-width="2" d="M255.233,-211.614C280.649,-207.567 320.822,-201.693 355.839,-198.87 600.032,-179.181 893.148,-178.658 1009.77,-179.373"/>
<polygon fill="blue" stroke="blue" stroke-width="2" points="1009.81,-182.873 1019.84,-179.44 1009.86,-175.873 1009.81,-182.873"/>
<text text-anchor="middle" x="575.365" y="-193.67" font-family="Times,serif" font-size="14.00">95%</text>
</g>
<!-- Study\nDepartment -->
<g id="node30" class="node"><title>Study\nDepartment</title>
<ellipse fill="#eeee00" stroke="#eeee00" cx="418.772" cy="-234.87" rx="57.0522" ry="26.7407"/>
<text text-anchor="middle" x="418.772" y="-238.67" font-family="Times,serif" font-size="14.00">Study</text>
<text text-anchor="middle" x="418.772" y="-223.67" font-family="Times,serif" font-size="14.00">Department</text>
</g>
<!-- Visa&#45;&gt;Study\nDepartment -->
<g id="edge29" class="edge"><title>Visa&#45;&gt;Study\nDepartment</title>
<path fill="none" stroke="yellow" stroke-width="2" d="M255.469,-218.472C280.356,-220.987 319.089,-224.9 352.475,-228.273"/>
<polygon fill="yellow" stroke="yellow" stroke-width="2" points="352.342,-231.777 362.644,-229.3 353.046,-224.813 352.342,-231.777"/>
<text text-anchor="middle" x="328.339" y="-230.67" font-family="Times,serif" font-size="14.00">5%</text>
</g>
<!-- Admission -->
<g id="node6" class="node"><title>Admission</title>
<ellipse fill="MediumAquamarine" stroke="MediumAquamarine" cx="228.714" cy="-269.87" rx="49.2915" ry="18"/>
<text text-anchor="middle" x="228.714" y="-266.17" font-family="Times,serif" font-size="14.00">Admission</text>
</g>
<!-- Application -->
<g id="node22" class="node"><title>Application</title>
<ellipse fill="none" stroke="black" cx="418.772" cy="-297.87" rx="51.9908" ry="18"/>
<text text-anchor="middle" x="418.772" y="-294.17" font-family="Times,serif" font-size="14.00">Application</text>
</g>
<!-- Admission&#45;&gt;Application -->
<g id="edge18" class="edge"><title>Admission&#45;&gt;Application</title>
<path fill="none" stroke="black" d="M274.759,-276.577C300.598,-280.424 333.285,-285.291 360.885,-289.4"/>
<polygon fill="black" stroke="black" points="360.395,-292.866 370.801,-290.877 361.426,-285.942 360.395,-292.866"/>
</g>
<!-- Nostrification -->
<g id="node7" class="node"><title>Nostrification</title>
<ellipse fill="MediumAquamarine" stroke="MediumAquamarine" cx="228.714" cy="-89.8701" rx="59.5901" ry="18"/>
<text text-anchor="middle" x="228.714" y="-86.1701" font-family="Times,serif" font-size="14.00">Nostrification</text>
</g>
<!-- Faculty\nAdvisor -->
<g id="node31" class="node"><title>Faculty\nAdvisor</title>
<ellipse fill="LightGreen" stroke="LightGreen" cx="1751.34" cy="-116.87" rx="42.3529" ry="26.7407"/>
<text text-anchor="middle" x="1751.34" y="-120.67" font-family="Times,serif" font-size="14.00">Faculty</text>
<text text-anchor="middle" x="1751.34" y="-105.67" font-family="Times,serif" font-size="14.00">Advisor</text>
</g>
<!-- Nostrification&#45;&gt;Faculty\nAdvisor -->
<g id="edge36" class="edge"><title>Nostrification&#45;&gt;Faculty\nAdvisor</title>
<path fill="none" stroke="green" stroke-width="2" d="M281.843,-81.3302C319.501,-75.8943 371.641,-69.8701 417.772,-69.8701 417.772,-69.8701 417.772,-69.8701 1587.11,-69.8701 1629.07,-69.8701 1674.81,-84.3883 1707.17,-97.2867"/>
<polygon fill="green" stroke="green" stroke-width="2" points="1706.18,-100.665 1716.76,-101.22 1708.84,-94.188 1706.18,-100.665"/>
</g>
<!-- Entry\nexamination -->
<g id="node8" class="node"><title>Entry\nexamination</title>
<ellipse fill="MediumAquamarine" stroke="MediumAquamarine" cx="228.714" cy="-26.8701" rx="59.2941" ry="26.7407"/>
<text text-anchor="middle" x="228.714" y="-30.6701" font-family="Times,serif" font-size="14.00">Entry</text>
<text text-anchor="middle" x="228.714" y="-15.6701" font-family="Times,serif" font-size="14.00">examination</text>
</g>
<!-- Information -->
<g id="node24" class="node"><title>Information</title>
<ellipse fill="none" stroke="black" cx="575.365" cy="-26.8701" rx="53.0913" ry="18"/>
<text text-anchor="middle" x="575.365" y="-23.1701" font-family="Times,serif" font-size="14.00">Information</text>
</g>
<!-- Entry\nexamination&#45;&gt;Information -->
<g id="edge22" class="edge"><title>Entry\nexamination&#45;&gt;Information</title>
<path fill="none" stroke="black" d="M288.18,-26.8701C350.215,-26.8701 447.885,-26.8701 511.533,-26.8701"/>
<polygon fill="black" stroke="black" points="511.835,-30.3702 521.835,-26.8701 511.835,-23.3702 511.835,-30.3702"/>
</g>
<!-- Study readiness\ncheck -->
<g id="node9" class="node"><title>Study readiness\ncheck</title>
<ellipse fill="MediumAquamarine" stroke="MediumAquamarine" cx="228.714" cy="-152.87" rx="72.25" ry="26.7407"/>
<text text-anchor="middle" x="228.714" y="-156.67" font-family="Times,serif" font-size="14.00">Study readiness</text>
<text text-anchor="middle" x="228.714" y="-141.67" font-family="Times,serif" font-size="14.00">check</text>
</g>
<!-- Course\nRegistration -->
<g id="node27" class="node"><title>Course\nRegistration</title>
<ellipse fill="none" stroke="black" cx="418.772" cy="-124.87" rx="58.8803" ry="26.7407"/>
<text text-anchor="middle" x="418.772" y="-128.67" font-family="Times,serif" font-size="14.00">Course</text>
<text text-anchor="middle" x="418.772" y="-113.67" font-family="Times,serif" font-size="14.00">Registration</text>
</g>
<!-- Study readiness\ncheck&#45;&gt;Course\nRegistration -->
<g id="edge26" class="edge"><title>Study readiness\ncheck&#45;&gt;Course\nRegistration</title>
<path fill="none" stroke="black" d="M296.016,-142.998C314.397,-140.262 334.329,-137.294 352.642,-134.567"/>
<polygon fill="black" stroke="black" points="353.253,-138.015 362.629,-133.08 352.222,-131.091 353.253,-138.015"/>
</g>
<!-- Study at CTU -->
<g id="node10" class="node"><title>Study at CTU</title>
<ellipse fill="SteelBlue" stroke="SteelBlue" cx="59.7947" cy="-269.87" rx="59.5901" ry="18"/>
<text text-anchor="middle" x="59.7947" y="-266.17" font-family="Times,serif" font-size="14.00">Study at CTU</text>
</g>
<!-- Study at CTU&#45;&gt;Marketing\ncommunication -->
<g id="edge1" class="edge"><title>Study at CTU&#45;&gt;Marketing\ncommunication</title>
<path fill="none" stroke="black" d="M66.825,-287.846C78.9669,-321.691 109.306,-395.536 156.589,-440.87 160.813,-444.92 165.582,-448.614 170.601,-451.959"/>
<polygon fill="black" stroke="black" points="168.877,-455.008 179.23,-457.261 172.542,-449.044 168.877,-455.008"/>
</g>
<!-- Study at CTU&#45;&gt;Study fairs\nand ehibitions -->
<g id="edge6" class="edge"><title>Study at CTU&#45;&gt;Study fairs\nand ehibitions</title>
<path fill="none" stroke="black" d="M74.5763,-287.339C91.9864,-308.584 123.669,-344.604 156.589,-368.87 162.053,-372.898 168.034,-376.703 174.134,-380.224"/>
<polygon fill="black" stroke="black" points="172.661,-383.409 183.108,-385.172 176.041,-377.279 172.661,-383.409"/>
</g>
<!-- Study at CTU&#45;&gt;Int. Degree\nStudents -->
<g id="edge8" class="edge"><title>Study at CTU&#45;&gt;Int. Degree\nStudents</title>
<path fill="none" stroke="black" d="M97.8396,-283.852C120.579,-292.434 150.059,-303.561 175.183,-313.043"/>
<polygon fill="black" stroke="black" points="173.984,-316.332 184.576,-316.588 176.456,-309.783 173.984,-316.332"/>
</g>
<!-- Study at CTU&#45;&gt;Transition to\nfaculty -->
<g id="edge14" class="edge"><title>Study at CTU&#45;&gt;Transition to\nfaculty</title>
<path fill="none" stroke="black" d="M63.4407,-288.054C70.6839,-331.895 94.5943,-444.821 156.589,-512.87 161.223,-517.957 166.74,-522.425 172.622,-526.324"/>
<polygon fill="black" stroke="black" points="171.068,-529.474 181.441,-531.635 174.68,-523.478 171.068,-529.474"/>
</g>
<!-- Study at CTU&#45;&gt;Visa -->
<g id="edge16" class="edge"><title>Study at CTU&#45;&gt;Visa</title>
<path fill="none" stroke="black" d="M101.201,-256.798C129.777,-247.554 167.625,-235.31 194.456,-226.629"/>
<polygon fill="black" stroke="black" points="195.721,-229.899 204.158,-223.491 193.566,-223.239 195.721,-229.899"/>
</g>
<!-- Study at CTU&#45;&gt;Admission -->
<g id="edge17" class="edge"><title>Study at CTU&#45;&gt;Admission</title>
<path fill="none" stroke="black" d="M119.644,-269.87C135.659,-269.87 153.002,-269.87 169.009,-269.87"/>
<polygon fill="black" stroke="black" points="169.308,-273.37 179.308,-269.87 169.308,-266.37 169.308,-273.37"/>
</g>
<!-- Study at CTU&#45;&gt;Nostrification -->
<g id="edge20" class="edge"><title>Study at CTU&#45;&gt;Nostrification</title>
<path fill="none" stroke="black" d="M67.5344,-251.887C80.2462,-220.277 110.677,-154.54 156.589,-116.87 161.803,-112.592 167.767,-108.947 173.974,-105.851"/>
<polygon fill="black" stroke="black" points="175.504,-109.001 183.183,-101.701 172.628,-102.619 175.504,-109.001"/>
</g>
<!-- Study at CTU&#45;&gt;Entry\nexamination -->
<g id="edge21" class="edge"><title>Study at CTU&#45;&gt;Entry\nexamination</title>
<path fill="none" stroke="black" d="M64.8589,-251.791C74.4687,-212.728 101.993,-119.419 156.589,-62.8701 161.612,-57.6678 167.547,-53.0894 173.813,-49.097"/>
<polygon fill="black" stroke="black" points="175.643,-52.0817 182.509,-44.0124 172.109,-46.039 175.643,-52.0817"/>
</g>
<!-- Study at CTU&#45;&gt;Study readiness\ncheck -->
<g id="edge25" class="edge"><title>Study at CTU&#45;&gt;Study readiness\ncheck</title>
<path fill="none" stroke="black" d="M78.504,-252.687C97.0066,-235.283 127.36,-208.24 156.589,-188.87 161.965,-185.308 167.739,-181.85 173.59,-178.576"/>
<polygon fill="black" stroke="black" points="175.669,-181.431 182.8,-173.595 172.339,-175.274 175.669,-181.431"/>
</g>
<!-- Social Media\nAnalysis -->
<g id="node12" class="node"><title>Social Media\nAnalysis</title>
<ellipse fill="none" stroke="black" cx="740.519" cy="-474.87" rx="62.8651" ry="26.7407"/>
<text text-anchor="middle" x="740.519" y="-478.67" font-family="Times,serif" font-size="14.00">Social Media</text>
<text text-anchor="middle" x="740.519" y="-463.67" font-family="Times,serif" font-size="14.00">Analysis</text>
</g>
<!-- Social Media\nCampaings&#45;&gt;Social Media\nAnalysis -->
<g id="edge3" class="edge"><title>Social Media\nCampaings&#45;&gt;Social Media\nAnalysis</title>
<path fill="none" stroke="black" d="M481.801,-475.676C534.887,-475.51 611.359,-475.271 667.211,-475.096"/>
<polygon fill="black" stroke="black" points="667.4,-478.596 677.389,-475.064 667.378,-471.596 667.4,-478.596"/>
</g>
<!-- First\nContact -->
<g id="node13" class="node"><title>First\nContact</title>
<ellipse fill="none" stroke="black" cx="1062.27" cy="-472.87" rx="41.9398" ry="26.7407"/>
<text text-anchor="middle" x="1062.27" y="-476.67" font-family="Times,serif" font-size="14.00">First</text>
<text text-anchor="middle" x="1062.27" y="-461.67" font-family="Times,serif" font-size="14.00">Contact</text>
</g>
<!-- Social Media\nAnalysis&#45;&gt;First\nContact -->
<g id="edge4" class="edge"><title>Social Media\nAnalysis&#45;&gt;First\nContact</title>
<path fill="none" stroke="black" d="M803.548,-474.482C863.729,-474.106 953.965,-473.541 1010.14,-473.19"/>
<polygon fill="black" stroke="black" points="1010.24,-476.689 1020.22,-473.127 1010.2,-469.69 1010.24,-476.689"/>
</g>
<!-- Promote Czech\nRepublic -->
<g id="node14" class="node"><title>Promote Czech\nRepublic</title>
<ellipse fill="none" stroke="black" cx="1457.09" cy="-466.87" rx="71.3357" ry="26.7407"/>
<text text-anchor="middle" x="1457.09" y="-470.67" font-family="Times,serif" font-size="14.00">Promote Czech</text>
<text text-anchor="middle" x="1457.09" y="-455.67" font-family="Times,serif" font-size="14.00">Republic</text>
</g>
<!-- First\nContact&#45;&gt;Promote Czech\nRepublic -->
<g id="edge5" class="edge"><title>First\nContact&#45;&gt;Promote Czech\nRepublic</title>
<path fill="none" stroke="black" d="M1104.19,-472.245C1168.14,-471.268 1292.96,-469.362 1375.44,-468.102"/>
<polygon fill="black" stroke="black" points="1375.58,-471.6 1385.53,-467.948 1375.48,-464.601 1375.58,-471.6"/>
</g>
<!-- CTU\nAmbassadors -->
<g id="node32" class="node"><title>CTU\nAmbassadors</title>
<ellipse fill="LightCoral" stroke="LightCoral" cx="1751.34" cy="-437.87" rx="63.7795" ry="26.7407"/>
<text text-anchor="middle" x="1751.34" y="-441.67" font-family="Times,serif" font-size="14.00">CTU</text>
<text text-anchor="middle" x="1751.34" y="-426.67" font-family="Times,serif" font-size="14.00">Ambassadors</text>
</g>
<!-- Promote Czech\nRepublic&#45;&gt;CTU\nAmbassadors -->
<g id="edge40" class="edge"><title>Promote Czech\nRepublic&#45;&gt;CTU\nAmbassadors</title>
<path fill="none" stroke="red" stroke-width="2" d="M1526.24,-460.107C1572.13,-455.554 1632.52,-449.562 1679.05,-444.945"/>
<polygon fill="red" stroke="red" stroke-width="2" points="1679.45,-448.422 1689.05,-443.952 1678.76,-441.457 1679.45,-448.422"/>
</g>
<!-- Communication\nwith prospective\nstudents&#45;&gt;CTU\nAmbassadors -->
<g id="edge32" class="edge"><title>Communication\nwith prospective\nstudents&#45;&gt;CTU\nAmbassadors</title>
<path fill="none" stroke="red" stroke-width="2" d="M651.017,-412.953C716.699,-413.812 814.909,-414.87 900.43,-414.87 900.43,-414.87 900.43,-414.87 1587.11,-414.87 1619.11,-414.87 1654.3,-419.258 1683.78,-424.201"/>
<polygon fill="red" stroke="red" stroke-width="2" points="1683.51,-427.705 1693.96,-425.966 1684.71,-420.808 1683.51,-427.705"/>
</g>
<!-- Faculties\nInformation -->
<g id="node17" class="node"><title>Faculties\nInformation</title>
<ellipse fill="none" stroke="black" cx="740.519" cy="-351.87" rx="57.9655" ry="26.7407"/>
<text text-anchor="middle" x="740.519" y="-355.67" font-family="Times,serif" font-size="14.00">Faculties</text>
<text text-anchor="middle" x="740.519" y="-340.67" font-family="Times,serif" font-size="14.00">Information</text>
</g>
<!-- Admissions&#45;&gt;Faculties\nInformation -->
<g id="edge10" class="edge"><title>Admissions&#45;&gt;Faculties\nInformation</title>
<path fill="none" stroke="black" d="M471.5,-351.87C526.136,-351.87 612.494,-351.87 672.356,-351.87"/>
<polygon fill="black" stroke="black" points="672.467,-355.37 682.467,-351.87 672.467,-348.37 672.467,-355.37"/>
</g>
<!-- Important\nDocumentation -->
<g id="node18" class="node"><title>Important\nDocumentation</title>
<ellipse fill="none" stroke="black" cx="1062.27" cy="-351.87" rx="71.3357" ry="26.7407"/>
<text text-anchor="middle" x="1062.27" y="-355.67" font-family="Times,serif" font-size="14.00">Important</text>
<text text-anchor="middle" x="1062.27" y="-340.67" font-family="Times,serif" font-size="14.00">Documentation</text>
</g>
<!-- Faculties\nInformation&#45;&gt;Important\nDocumentation -->
<g id="edge11" class="edge"><title>Faculties\nInformation&#45;&gt;Important\nDocumentation</title>
<path fill="none" stroke="black" d="M798.683,-351.87C849.35,-351.87 923.885,-351.87 980.612,-351.87"/>
<polygon fill="black" stroke="black" points="980.629,-355.37 990.629,-351.87 980.629,-348.37 980.629,-355.37"/>
</g>
<!-- Life at\nCTU -->
<g id="node19" class="node"><title>Life at\nCTU</title>
<ellipse fill="none" stroke="black" cx="1330.2" cy="-351.87" rx="37.4533" ry="26.7407"/>
<text text-anchor="middle" x="1330.2" y="-355.67" font-family="Times,serif" font-size="14.00">Life at</text>
<text text-anchor="middle" x="1330.2" y="-340.67" font-family="Times,serif" font-size="14.00">CTU</text>
</g>
<!-- Important\nDocumentation&#45;&gt;Life at\nCTU -->
<g id="edge12" class="edge"><title>Important\nDocumentation&#45;&gt;Life at\nCTU</title>
<path fill="none" stroke="black" d="M1133.83,-351.87C1180.93,-351.87 1241.53,-351.87 1282.66,-351.87"/>
<polygon fill="black" stroke="black" points="1282.68,-355.37 1292.68,-351.87 1282.68,-348.37 1282.68,-355.37"/>
</g>
<!-- Cost of\nliving -->
<g id="node20" class="node"><title>Cost of\nliving</title>
<ellipse fill="none" stroke="black" cx="1586.11" cy="-351.87" rx="39.6962" ry="26.7407"/>
<text text-anchor="middle" x="1586.11" y="-355.67" font-family="Times,serif" font-size="14.00">Cost of</text>
<text text-anchor="middle" x="1586.11" y="-340.67" font-family="Times,serif" font-size="14.00">living</text>
</g>
<!-- Life at\nCTU&#45;&gt;Cost of\nliving -->
<g id="edge13" class="edge"><title>Life at\nCTU&#45;&gt;Cost of\nliving</title>
<path fill="none" stroke="black" d="M1367.85,-351.87C1412.21,-351.87 1487.07,-351.87 1536.29,-351.87"/>
<polygon fill="black" stroke="black" points="1536.39,-355.37 1546.39,-351.87 1536.39,-348.37 1536.39,-355.37"/>
</g>
<!-- Cost of\nliving&#45;&gt;Faculty\nAdvisor -->
<g id="edge35" class="edge"><title>Cost of\nliving&#45;&gt;Faculty\nAdvisor</title>
<path fill="none" stroke="green" stroke-width="2" d="M1608.78,-329.477C1626.26,-310.848 1650.93,-283.212 1669.7,-256.87 1694.16,-222.551 1717.69,-180.295 1732.95,-151.238"/>
<polygon fill="green" stroke="green" stroke-width="2" points="1736.09,-152.781 1737.61,-142.294 1729.88,-149.548 1736.09,-152.781"/>
<text text-anchor="middle" x="1656.7" y="-293.67" font-family="Times,serif" font-size="14.00">20%</text>
</g>
<!-- Cost of\nliving&#45;&gt;CTU\nAmbassadors -->
<g id="edge34" class="edge"><title>Cost of\nliving&#45;&gt;CTU\nAmbassadors</title>
<path fill="none" stroke="red" stroke-width="2" d="M1621.5,-364.404C1636.58,-370.311 1654.31,-377.825 1669.7,-385.87 1683.02,-392.829 1696.96,-401.339 1709.44,-409.443"/>
<polygon fill="red" stroke="red" stroke-width="2" points="1707.54,-412.383 1717.81,-414.964 1711.39,-406.538 1707.54,-412.383"/>
<text text-anchor="middle" x="1656.7" y="-389.67" font-family="Times,serif" font-size="14.00">80%</text>
</g>
<!-- Faculty advisor\norienting\ncandidate&#45;&gt;CTU\nAmbassadors -->
<g id="edge39" class="edge"><title>Faculty advisor\norienting\ncandidate&#45;&gt;CTU\nAmbassadors</title>
<path fill="none" stroke="red" stroke-width="2" d="M972.864,-529.87C1035.65,-529.87 1130.05,-529.87 1212.2,-529.87 1212.2,-529.87 1212.2,-529.87 1587.11,-529.87 1637.57,-529.87 1686.82,-496.084 1717.8,-469.461"/>
<polygon fill="red" stroke="red" stroke-width="2" points="1720.47,-471.768 1725.65,-462.524 1715.84,-466.521 1720.47,-471.768"/>
</g>
<!-- Submission -->
<g id="node23" class="node"><title>Submission</title>
<ellipse fill="none" stroke="black" cx="740.519" cy="-242.87" rx="51.9908" ry="18"/>
<text text-anchor="middle" x="740.519" y="-239.17" font-family="Times,serif" font-size="14.00">Submission</text>
</g>
<!-- Application&#45;&gt;Submission -->
<g id="edge19" class="edge"><title>Application&#45;&gt;Submission</title>
<path fill="none" stroke="black" d="M465.584,-289.99C523.08,-280.1 621.646,-263.145 683.549,-252.498"/>
<polygon fill="black" stroke="black" points="684.271,-255.925 693.533,-250.78 683.084,-249.026 684.271,-255.925"/>
</g>
<!-- Submission&#45;&gt;Study\nAdvisor -->
<g id="edge38" class="edge"><title>Submission&#45;&gt;Study\nAdvisor</title>
<path fill="none" stroke="blue" stroke-width="2" d="M776.862,-229.754C792.904,-224.2 812.23,-218.059 830.012,-213.87 863.268,-206.037 952.83,-193.798 1010.24,-186.338"/>
<polygon fill="blue" stroke="blue" stroke-width="2" points="1010.74,-189.802 1020.21,-185.048 1009.84,-182.86 1010.74,-189.802"/>
<text text-anchor="middle" x="901.43" y="-217.67" font-family="Times,serif" font-size="14.00">10%</text>
</g>
<!-- Submission&#45;&gt;Faculty\nAdvisor -->
<g id="edge37" class="edge"><title>Submission&#45;&gt;Faculty\nAdvisor</title>
<path fill="none" stroke="green" stroke-width="2" d="M792.744,-242.87C855.888,-242.87 966.48,-242.87 1061.27,-242.87 1061.27,-242.87 1061.27,-242.87 1587.11,-242.87 1648.02,-242.87 1700.06,-187.22 1728.13,-149.888"/>
<polygon fill="green" stroke="green" stroke-width="2" points="1730.99,-151.9 1734.08,-141.764 1725.34,-147.764 1730.99,-151.9"/>
<text text-anchor="middle" x="1330.2" y="-246.67" font-family="Times,serif" font-size="14.00">90%</text>
</g>
<!-- Preparation -->
<g id="node25" class="node"><title>Preparation</title>
<ellipse fill="none" stroke="black" cx="901.43" cy="-26.8701" rx="51.1914" ry="18"/>
<text text-anchor="middle" x="901.43" y="-23.1701" font-family="Times,serif" font-size="14.00">Preparation</text>
</g>
<!-- Information&#45;&gt;Preparation -->
<g id="edge23" class="edge"><title>Information&#45;&gt;Preparation</title>
<path fill="none" stroke="black" d="M628.792,-26.8701C686.452,-26.8701 778.972,-26.8701 839.733,-26.8701"/>
<polygon fill="black" stroke="black" points="839.946,-30.3702 849.946,-26.8701 839.946,-23.3702 839.946,-30.3702"/>
</g>
<!-- Exam\nOrganization -->
<g id="node26" class="node"><title>Exam\nOrganization</title>
<ellipse fill="none" stroke="black" cx="1213.2" cy="-26.8701" rx="61.5366" ry="26.7407"/>
<text text-anchor="middle" x="1213.2" y="-30.6701" font-family="Times,serif" font-size="14.00">Exam</text>
<text text-anchor="middle" x="1213.2" y="-15.6701" font-family="Times,serif" font-size="14.00">Organization</text>
</g>
<!-- Preparation&#45;&gt;Exam\nOrganization -->
<g id="edge24" class="edge"><title>Preparation&#45;&gt;Exam\nOrganization</title>
<path fill="none" stroke="black" d="M952.89,-26.8701C1004.16,-26.8701 1084,-26.8701 1141.55,-26.8701"/>
<polygon fill="black" stroke="black" points="1141.66,-30.3702 1151.66,-26.8701 1141.66,-23.3702 1141.66,-30.3702"/>
</g>
<!-- Exam\nOrganization&#45;&gt;Faculty\nAdvisor -->
<g id="edge33" class="edge"><title>Exam\nOrganization&#45;&gt;Faculty\nAdvisor</title>
<path fill="none" stroke="green" stroke-width="2" d="M1272.86,-20.1197C1361.79,-12.1672 1534.7,-5.72936 1669.7,-55.8701 1688.14,-62.7159 1705.88,-75.2499 1720,-87.1834"/>
<polygon fill="green" stroke="green" stroke-width="2" points="1718.06,-90.1297 1727.88,-94.0928 1722.67,-84.8673 1718.06,-90.1297"/>
</g>
<!-- Orientation week -->
<g id="node28" class="node"><title>Orientation week</title>
<ellipse fill="none" stroke="black" cx="740.519" cy="-124.87" rx="71.4873" ry="18"/>
<text text-anchor="middle" x="740.519" y="-121.17" font-family="Times,serif" font-size="14.00">Orientation week</text>
</g>
<!-- Course\nRegistration&#45;&gt;Orientation week -->
<g id="edge27" class="edge"><title>Course\nRegistration&#45;&gt;Orientation week</title>
<path fill="none" stroke="black" d="M477.675,-124.87C528.247,-124.87 602.183,-124.87 658.602,-124.87"/>
<polygon fill="black" stroke="black" points="658.923,-128.37 668.923,-124.87 658.923,-121.37 658.923,-128.37"/>
</g>
<!-- Orientation week&#45;&gt;Study\nAdvisor -->
<g id="edge31" class="edge"><title>Orientation week&#45;&gt;Study\nAdvisor</title>
<path fill="none" stroke="blue" stroke-width="2" d="M810.443,-128.904C856.757,-132.519 918.946,-139.131 972.848,-150.87 987.074,-153.968 1002.24,-158.479 1015.93,-163.024"/>
<polygon fill="blue" stroke="blue" stroke-width="2" points="1015,-166.406 1025.59,-166.32 1017.26,-159.78 1015,-166.406"/>
<text text-anchor="middle" x="901.43" y="-154.67" font-family="Times,serif" font-size="14.00">10%</text>
</g>
<!-- Orientation week&#45;&gt;Faculty\nAdvisor -->
<g id="edge30" class="edge"><title>Orientation week&#45;&gt;Faculty\nAdvisor</title>
<path fill="none" stroke="green" stroke-width="2" d="M811.366,-122.117C876.134,-119.803 975.196,-116.87 1061.27,-116.87 1061.27,-116.87 1061.27,-116.87 1587.11,-116.87 1624.44,-116.87 1666.58,-116.87 1698.69,-116.87"/>
<polygon fill="green" stroke="green" stroke-width="2" points="1698.75,-120.37 1708.75,-116.87 1698.75,-113.37 1698.75,-120.37"/>
<text text-anchor="middle" x="1330.2" y="-120.67" font-family="Times,serif" font-size="14.00">90%</text>
</g>
</g>
</svg>
